<svg xmlns="http://www.w3.org/2000/svg" xmlns:xlink="http://www.w3.org/1999/xlink" width="45" zoomAndPan="magnify" viewBox="0 0 33.75 33.749999" height="45" preserveAspectRatio="xMidYMid meet" version="1.0"><defs><clipPath id="ecb7217af7"><path d="M 4.703125 0 L 29.046875 0 L 29.046875 33.5 L 4.703125 33.5 Z M 4.703125 0 " clip-rule="nonzero"/></clipPath><clipPath id="677405c92c"><path d="M 12.65625 0 L 21.167969 0 L 21.167969 8.957031 L 12.65625 8.957031 Z M 12.65625 0 " clip-rule="nonzero"/></clipPath><clipPath id="b131eb1d9d"><path d="M 21.097656 8.957031 C 20.726562 7.144531 19.433594 5.375 16.355469 3.917969 C 13.300781 2.46875 12.683594 0.0390625 12.671875 0.00390625 C 12.703125 0.0390625 14.328125 1.953125 16.90625 2.726562 C 19.976562 3.644531 21.160156 5.527344 21.160156 7.945312 C 21.160156 8.273438 21.136719 8.609375 21.097656 8.957031 " clip-rule="nonzero"/></clipPath><clipPath id="1be6e1b1a1"><path d="M 21.097656 8.957031 C 20.726562 7.144531 19.429688 5.375 16.355469 3.917969 C 13.300781 2.46875 12.683594 0.0390625 12.671875 0.00390625 C 12.703125 0.0390625 14.328125 1.953125 16.902344 2.726562 C 19.976562 3.644531 21.160156 5.527344 21.160156 7.945312 C 21.160156 8.273438 21.136719 8.609375 21.097656 8.957031 " clip-rule="nonzero"/></clipPath><clipPath id="9b0a4e7070"><path d="M 14 12.046875 L 19.855469 12.046875 L 19.855469 16.914062 L 14 16.914062 Z M 14 12.046875 " clip-rule="nonzero"/></clipPath><clipPath id="daf2b81b60"><path d="M 13.84375 14 L 15 14 L 15 16 L 13.84375 16 Z M 13.84375 14 " clip-rule="nonzero"/></clipPath><clipPath id="512121b451"><path d="M 19 14 L 19.855469 14 L 19.855469 16 L 19 16 Z M 19 14 " clip-rule="nonzero"/></clipPath></defs><path fill="#ffbd59" d="M 16.894531 11.8125 C 11.484375 11.800781 7.09375 16.191406 7.09375 21.605469 C 7.09375 25.730469 9.644531 29.261719 13.25 30.703125 L 13.367188 28.558594 C 13.410156 27.796875 12.964844 27.082031 12.210938 26.632812 C 11.289062 26.085938 10.667969 25.09375 10.667969 23.960938 C 10.667969 20.472656 12.546875 17.667969 13.871094 17.667969 C 15.195312 17.667969 17.070312 20.472656 17.070312 23.960938 C 17.070312 25.09375 16.453125 26.085938 15.527344 26.632812 C 14.773438 27.082031 14.332031 27.796875 14.375 28.558594 L 14.511719 31.109375 C 15.269531 31.296875 16.0625 31.398438 16.875 31.398438 C 17.898438 31.398438 18.882812 31.242188 19.804688 30.953125 L 19.941406 28.429688 C 19.980469 27.738281 19.628906 27.070312 18.992188 26.613281 C 18.269531 26.097656 17.792969 25.203125 17.792969 24.191406 L 17.792969 18.089844 C 17.792969 17.855469 17.984375 17.667969 18.21875 17.667969 C 18.449219 17.667969 18.640625 17.855469 18.640625 18.089844 L 18.640625 24.257812 C 18.640625 24.433594 18.78125 24.574219 18.957031 24.574219 C 19.132812 24.574219 19.273438 24.433594 19.273438 24.257812 L 19.273438 18.089844 C 19.273438 17.855469 19.464844 17.667969 19.699219 17.667969 C 19.933594 17.667969 20.121094 17.855469 20.121094 18.089844 L 20.121094 24.257812 C 20.121094 24.433594 20.265625 24.574219 20.4375 24.574219 C 20.613281 24.574219 20.757812 24.433594 20.757812 24.257812 L 20.757812 18.089844 C 20.757812 17.855469 20.945312 17.667969 21.179688 17.667969 C 21.414062 17.667969 21.601562 17.855469 21.601562 18.089844 L 21.601562 24.257812 C 21.601562 24.433594 21.746094 24.574219 21.921875 24.574219 C 22.09375 24.574219 22.238281 24.433594 22.238281 24.257812 L 22.238281 18.089844 C 22.238281 17.855469 22.425781 17.667969 22.660156 17.667969 C 22.894531 17.667969 23.082031 17.855469 23.082031 18.089844 L 23.082031 24.191406 C 23.082031 25.203125 22.609375 26.097656 21.886719 26.613281 C 21.25 27.070312 20.898438 27.738281 20.933594 28.429688 L 21.046875 30.46875 C 24.335938 28.914062 26.617188 25.578125 26.65625 21.703125 C 26.710938 16.308594 22.289062 11.824219 16.894531 11.8125 " fill-opacity="1" fill-rule="nonzero"/><g clip-path="url(#ecb7217af7)"><path fill="#7ed957" d="M 29.046875 21.605469 C 29.046875 28.335938 23.597656 33.792969 16.875 33.792969 C 10.15625 33.792969 4.703125 28.335938 4.703125 21.605469 C 4.703125 15.660156 8.953125 10.710938 14.578125 9.636719 C 15.042969 10.078125 15.59375 10.445312 16.246094 10.703125 C 10.515625 11.027344 5.96875 15.785156 5.96875 21.605469 C 5.96875 27.636719 10.851562 32.527344 16.875 32.527344 C 22.902344 32.527344 27.785156 27.636719 27.785156 21.605469 C 27.785156 16.472656 24.246094 12.179688 19.484375 11 C 17.738281 10.566406 15.375 9.722656 13.996094 7.300781 C 12.28125 4.289062 12.671875 0 12.671875 0 C 12.703125 0.0390625 14.328125 1.953125 16.90625 2.726562 C 20.394531 3.769531 21.445312 6.058594 21.097656 8.957031 C 17.554688 7.722656 16.355469 5.941406 16.355469 5.941406 C 17.261719 9.316406 20.300781 9.777344 21.808594 10.460938 C 26.058594 12.390625 29.046875 16.632812 29.046875 21.605469 " fill-opacity="1" fill-rule="nonzero"/></g><g clip-path="url(#677405c92c)"><g clip-path="url(#b131eb1d9d)"><g clip-path="url(#1be6e1b1a1)"><path fill="#c9e265" d="M 12.671875 0.00390625 L 12.671875 8.957031 L 21.160156 8.957031 L 21.160156 0.00390625 Z M 12.671875 0.00390625 " fill-opacity="1" fill-rule="nonzero"/></g></g></g><g clip-path="url(#9b0a4e7070)"><path fill="#ffffff" d="M 18.121094 16.914062 L 15.578125 16.914062 C 15.015625 16.914062 14.5625 16.453125 14.5625 15.886719 L 14.5625 14.210938 C 14.5625 13.640625 15.015625 13.179688 15.578125 13.179688 L 16.738281 13.179688 L 16.742188 12.785156 C 16.589844 12.738281 16.480469 12.59375 16.480469 12.421875 C 16.480469 12.214844 16.648438 12.046875 16.851562 12.046875 C 17.054688 12.046875 17.226562 12.214844 17.226562 12.421875 C 17.226562 12.59375 17.109375 12.742188 16.953125 12.789062 L 16.949219 13.179688 L 18.121094 13.179688 C 18.675781 13.179688 19.132812 13.640625 19.132812 14.210938 L 19.132812 15.890625 C 19.132812 16.457031 18.675781 16.914062 18.121094 16.914062 Z M 15.894531 15.289062 C 15.59375 15.289062 15.359375 15.050781 15.359375 14.746094 C 15.359375 14.445312 15.59375 14.203125 15.894531 14.203125 C 16.191406 14.203125 16.425781 14.445312 16.425781 14.746094 C 16.425781 15.050781 16.191406 15.289062 15.894531 15.289062 Z M 15.894531 14.417969 C 15.710938 14.417969 15.570312 14.5625 15.570312 14.746094 C 15.570312 14.929688 15.710938 15.074219 15.894531 15.074219 C 16.074219 15.074219 16.21875 14.929688 16.21875 14.746094 C 16.21875 14.5625 16.074219 14.417969 15.894531 14.417969 Z M 17.804688 15.265625 C 17.507812 15.265625 17.269531 15.023438 17.269531 14.722656 C 17.269531 14.421875 17.507812 14.179688 17.804688 14.179688 C 18.097656 14.179688 18.339844 14.421875 18.339844 14.722656 C 18.339844 15.023438 18.097656 15.265625 17.804688 15.265625 Z M 17.804688 14.394531 C 17.625 14.394531 17.480469 14.542969 17.480469 14.722656 C 17.480469 14.90625 17.625 15.054688 17.804688 15.054688 C 17.984375 15.054688 18.128906 14.90625 18.128906 14.722656 C 18.128906 14.535156 17.984375 14.394531 17.804688 14.394531 Z M 16.808594 15.917969 C 16.609375 15.917969 16.433594 15.824219 16.335938 15.738281 C 16.289062 15.699219 16.285156 15.625 16.324219 15.585938 C 16.363281 15.542969 16.425781 15.535156 16.472656 15.578125 C 16.503906 15.609375 16.808594 15.855469 17.101562 15.582031 C 17.144531 15.542969 17.207031 15.542969 17.253906 15.585938 C 17.292969 15.632812 17.292969 15.699219 17.25 15.742188 C 17.101562 15.871094 16.949219 15.917969 16.808594 15.917969 Z M 16.808594 15.917969 " fill-opacity="1" fill-rule="evenodd"/></g><g clip-path="url(#daf2b81b60)"><path fill="#ffffff" d="M 14.351562 15.765625 L 14.308594 15.765625 C 14.054688 15.765625 13.84375 15.554688 13.84375 15.292969 L 13.84375 14.5625 C 13.84375 14.300781 14.054688 14.085938 14.308594 14.085938 L 14.359375 14.085938 C 14.355469 14.125 14.351562 14.167969 14.351562 14.210938 Z M 14.351562 15.765625 " fill-opacity="1" fill-rule="evenodd"/></g><g clip-path="url(#512121b451)"><path fill="#ffffff" d="M 19.382812 15.765625 L 19.34375 15.765625 L 19.34375 14.210938 C 19.34375 14.164062 19.339844 14.121094 19.335938 14.082031 L 19.382812 14.082031 C 19.644531 14.082031 19.855469 14.292969 19.855469 14.558594 L 19.855469 15.292969 C 19.855469 15.558594 19.644531 15.765625 19.382812 15.765625 Z M 19.382812 15.765625 " fill-opacity="1" fill-rule="evenodd"/></g></svg>
